<svg width="20.000000" height="18.000000" viewBox="0 0 20 18" fill="none" xmlns="http://www.w3.org/2000/svg" xmlns:xlink="http://www.w3.org/1999/xlink">
	<desc>
			Created with Pixso.
	</desc>
	<defs/>
	<rect id="Rectangle" rx="9.000000" width="20.000000" height="18.000000" fill="#1D1F2E" fill-opacity="1.000000"/>
	<path id="0" d="M8.75 11.84Q9.3 12.13 10 12.13Q10.66 12.13 11.19 11.86Q11.31 11.8 11.42 11.73Q11.43 11.72 11.45 11.71Q12.04 11.31 12.37 10.54Q12.7 9.74 12.7 8.54Q12.7 7.34 12.37 6.55Q12.04 5.78 11.46 5.39Q11.44 5.37 11.42 5.36Q11.31 5.29 11.19 5.23Q10.66 4.97 10 4.97Q9.3 4.97 8.75 5.26Q8.66 5.3 8.58 5.36Q8.56 5.37 8.55 5.38Q7.96 5.77 7.63 6.55Q7.29 7.34 7.29 8.54Q7.29 9.74 7.63 10.54Q7.96 11.32 8.56 11.72Q8.57 11.73 8.58 11.73Q8.66 11.79 8.75 11.84ZM10.83 11.13Q10.47 11.33 10 11.33Q9.54 11.33 9.19 11.14Q8.88 10.96 8.65 10.61Q8.18 9.88 8.18 8.54Q8.18 7.2 8.65 6.48Q8.88 6.12 9.2 5.94Q9.54 5.75 10 5.75Q10.47 5.75 10.82 5.95Q11.13 6.13 11.35 6.48Q11.81 7.2 11.81 8.54Q11.81 9.88 11.35 10.61Q11.13 10.95 10.83 11.13Z" fill="#FFFFFF" fill-opacity="1.000000" fill-rule="evenodd"/>
</svg>
